<?xml version="1.0" encoding="utf-8"?>
<!-- Generator: Adobe Illustrator 16.0.0, SVG Export Plug-In . SVG Version: 6.00 Build 0)  -->
<!DOCTYPE svg PUBLIC "-//W3C//DTD SVG 1.1//EN" "http://www.w3.org/Graphics/SVG/1.1/DTD/svg11.dtd">
<svg version="1.1" id="Layer_1" xmlns="http://www.w3.org/2000/svg" xmlns:xlink="http://www.w3.org/1999/xlink" x="0px" y="0px"
	 width="58px" height="58px" viewBox="0 0 58 58" enable-background="new 0 0 58 58" xml:space="preserve">
<path fill="none" stroke="#4DA4FC" stroke-width="2" stroke-linecap="round" stroke-linejoin="round" stroke-miterlimit="10" d="
	M21.614,14.741c3.741-3.426,8.726-5.516,14.198-5.516c11.615,0,21.03,9.415,21.03,21.03s-9.415,21.031-21.03,21.031
	c-5.798,0-11.049-2.348-14.853-6.143"/>
<g>
	<path fill="none" stroke="#4DA4FC" stroke-width="2" stroke-linecap="round" stroke-linejoin="round" stroke-miterlimit="10" d="
		M11.166,39.694C5.639,39.736,1.124,35.018,1.082,29.492c-0.042-5.527,4.402-9.504,9.928-9.547C15.021,19.915,18.498,23,20.12,26
		h23.292l4.274,3.671l-5.669,5.538L40.517,34h-0.002l-2.11,2.087L36.261,34h-1.846l-3.014,2.479l-2.741-3.305l-1.789,2.563
		L24.729,34h-4.396C18.839,37,15.306,39.662,11.166,39.694z"/>
	
		<circle fill="none" stroke="#4DA4FC" stroke-width="2" stroke-linecap="round" stroke-linejoin="round" stroke-miterlimit="10" cx="9.084" cy="28.536" r="2.639"/>
	
		<line fill="none" stroke="#4DA4FC" stroke-width="2" stroke-linecap="round" stroke-linejoin="round" stroke-miterlimit="10" x1="41" y1="30" x2="21" y2="30"/>
</g>
<polyline fill="none" stroke="#4DA4FC" stroke-width="2" stroke-linecap="round" stroke-linejoin="round" stroke-miterlimit="10" points="
	26.917,15.218 21.614,14.741 22.903,9.226 "/>
</svg>
