<?xml version="1.0" encoding="utf-8"?>
<!-- Generator: Adobe Illustrator 16.0.0, SVG Export Plug-In . SVG Version: 6.00 Build 0)  -->
<!DOCTYPE svg PUBLIC "-//W3C//DTD SVG 1.1//EN" "http://www.w3.org/Graphics/SVG/1.1/DTD/svg11.dtd">
<svg version="1.1" id="Layer_1" xmlns="http://www.w3.org/2000/svg" xmlns:xlink="http://www.w3.org/1999/xlink" x="0px" y="0px"
	 width="58px" height="58px" viewBox="0 0 58 58" enable-background="new 0 0 58 58" xml:space="preserve">
<g>
	<path fill="none" stroke="#4DA4FC" stroke-width="2" stroke-linecap="round" stroke-linejoin="round" stroke-miterlimit="10" d="
		M36.869,16.009c0,4.226-3.43,7.652-7.655,7.652c-4.228,0-7.657-3.427-7.657-7.652c0-4.229,3.429-7.657,7.657-7.657
		C33.439,8.352,36.869,11.78,36.869,16.009z"/>
	<path fill="none" stroke="#4DA4FC" stroke-width="2" stroke-linecap="round" stroke-linejoin="round" stroke-miterlimit="10" d="
		M42.5,55V39.724c0-8.308-5.697-15.038-14-15.038c-8.306,0-14,6.73-14,15.038V55"/>
	<path fill="none" stroke="#4DA4FC" stroke-width="2" stroke-linecap="round" stroke-linejoin="round" stroke-miterlimit="10" d="
		M21.437,17.128c-1.404,1.625-3.48,2.654-5.796,2.654c-4.228,0-7.655-3.424-7.655-7.653c0-4.227,3.428-7.654,7.655-7.654
		c3.846,0,7.031,2.838,7.574,6.535"/>
	<path fill="none" stroke="#4DA4FC" stroke-width="2" stroke-linecap="round" stroke-linejoin="round" stroke-miterlimit="10" d="
		M24.807,25.029c-2.334-2.465-5.695-4.097-9.623-4.097C6.877,20.933,1.5,27.539,1.5,35.846V50"/>
	<path fill="none" stroke="#4DA4FC" stroke-width="2" stroke-linecap="round" stroke-linejoin="round" stroke-miterlimit="10" d="
		M56.5,50V35.846c0-8.307-5.402-15.037-13.705-15.037c-4.104,0-7.399,1.891-9.75,4.555"/>
	<path fill="none" stroke="#4DA4FC" stroke-width="2" stroke-linecap="round" stroke-linejoin="round" stroke-miterlimit="10" d="
		M35.241,10.823c0.619-3.605,3.762-6.349,7.544-6.349c4.225,0,7.655,3.428,7.655,7.654c0,4.229-3.43,7.653-7.655,7.653
		c-2.31,0-4.38-1.021-5.785-2.639"/>
</g>
</svg>
