<?xml version="1.0" encoding="utf-8"?>
<!-- Generator: Adobe Illustrator 16.0.0, SVG Export Plug-In . SVG Version: 6.00 Build 0)  -->
<!DOCTYPE svg PUBLIC "-//W3C//DTD SVG 1.1//EN" "http://www.w3.org/Graphics/SVG/1.1/DTD/svg11.dtd">
<svg version="1.1" id="Layer_1" xmlns="http://www.w3.org/2000/svg" xmlns:xlink="http://www.w3.org/1999/xlink" x="0px" y="0px"
	 width="58px" height="58px" viewBox="0 0 58 58" enable-background="new 0 0 58 58" xml:space="preserve">
<g>
	
		<line fill="none" stroke="#4DA4FC" stroke-width="2" stroke-linecap="round" stroke-linejoin="round" stroke-miterlimit="10" x1="16.017" y1="34.367" x2="12.006" y2="32.666"/>
	<path fill="none" stroke="#4DA4FC" stroke-width="2" stroke-linecap="round" stroke-linejoin="round" stroke-miterlimit="10" d="
		M16.36,23.76c0,0,1.38,1.162,3.998,0.785c1.602-0.23,3.853-0.461,5.701-0.461c8.531,0,14.831,8.789,16.136,10.396
		c1.082,1.478-0.165,3.405-1.771,3.099c0.26,1.048-1.389,2.587-2.752,2.2c0.265,0.551-0.713,2.388-2.678,1.809
		c0,0-0.751,0.982-2.021,0.982c-1.271,0-4.532-0.661-5.288-1.128c1.243-2.606-0.954-3.708-1.716-3.058"/>
	<path fill="none" stroke="#4DA4FC" stroke-width="2" stroke-linecap="round" stroke-linejoin="round" stroke-miterlimit="10" d="
		M28.434,41.735"/>
	<path fill="none" stroke="#4DA4FC" stroke-width="2" stroke-linecap="round" stroke-linejoin="round" stroke-miterlimit="10" d="
		M24.545,41.36c-0.258,1.854,4.048,2.646,4.384,0.576"/>
	<g>
		<path fill="none" stroke="#4DA4FC" stroke-width="2" stroke-linecap="round" stroke-linejoin="round" stroke-miterlimit="10" d="
			M41.375,20.481c-0.646,0.327-0.915,1.129-0.597,1.78l6.278,12.842c0.318,0.651,1.1,0.899,1.735,0.552l6.646-3.635
			c0.636-0.348,0.897-1.167,0.58-1.818l-6.104-12.571c-0.317-0.652-1.105-0.917-1.752-0.59L41.375,20.481z"/>
	</g>
	<circle fill="#4DA4FC" cx="50.209" cy="30.15" r="1.33"/>
	<path fill="none" stroke="#4DA4FC" stroke-width="2" stroke-linecap="round" stroke-linejoin="round" stroke-miterlimit="10" d="
		M18.205,37.122c-1.845,0.47-3.052-1.177-2.188-2.755c1.151-0.508,3.028,0.359,3.028,0.977"/>
	<path fill="none" stroke="#4DA4FC" stroke-width="2" stroke-linecap="round" stroke-linejoin="round" stroke-miterlimit="10" d="
		M21.138,40.059"/>
	<path fill="none" stroke="#4DA4FC" stroke-width="2" stroke-linecap="round" stroke-linejoin="round" stroke-miterlimit="10" d="
		M23.067,36.147c0.828-1.503,3.877-0.353,3.197,1.546c-0.539,1.297-0.813,1.803-1.73,3.625c-0.927,1.846-4.326,0.577-3.49-1.326
		C21.566,38.803,22.767,36.694,23.067,36.147z"/>
	<path fill="none" stroke="#4DA4FC" stroke-width="2" stroke-linecap="round" stroke-linejoin="round" stroke-miterlimit="10" d="
		M20.752,40.165c-1.35,0.581-3.461-1.184-2.547-3.043c0,0,0.571-1.071,1.294-2.264c0.976-1.611,3.729-0.668,3.632,0.939"/>
	<path fill="none" stroke="#4DA4FC" stroke-width="2" stroke-linecap="round" stroke-linejoin="round" stroke-miterlimit="10" d="
		M42.545,35.224l3.337-2.524l-4.904-10.031l-1.142,0.164c0,0-6.93-2.227-8.788-2.479c-1.858-0.251-6.335-0.389-7.661-0.15
		c-1.08,0.194-3.226,0.947-4.61,1.309c-1.122,0.293-1.177,3.066,1.376,3.031"/>
	<g>
		<path fill="none" stroke="#4DA4FC" stroke-width="2" stroke-linecap="round" stroke-linejoin="round" stroke-miterlimit="10" d="
			M16.234,20.999c0.646,0.327,0.915,1.129,0.597,1.78l-6.277,12.843c-0.318,0.651-1.1,0.899-1.735,0.552l-6.646-3.636
			c-0.636-0.348-0.897-1.166-0.58-1.818l6.104-12.57c0.317-0.652,1.105-0.917,1.752-0.59L16.234,20.999z"/>
	</g>
	<circle fill="#4DA4FC" cx="7.527" cy="30.809" r="1.33"/>
</g>
</svg>
