<?xml version="1.0" encoding="utf-8"?>
<!-- Generator: Adobe Illustrator 16.0.0, SVG Export Plug-In . SVG Version: 6.00 Build 0)  -->
<!DOCTYPE svg PUBLIC "-//W3C//DTD SVG 1.1//EN" "http://www.w3.org/Graphics/SVG/1.1/DTD/svg11.dtd">
<svg version="1.1" id="Layer_1" xmlns="http://www.w3.org/2000/svg" xmlns:xlink="http://www.w3.org/1999/xlink" x="0px" y="0px"
	 width="58px" height="58px" viewBox="0 0 58 58" enable-background="new 0 0 58 58" xml:space="preserve">
<path fill="none" stroke="#4DA4FC" stroke-width="2.0242" stroke-linecap="round" stroke-linejoin="round" stroke-miterlimit="10" d="
	M45.672,37.236c0.56,0.569,1.338,0.923,2.199,0.923c1.706,0,3.088-1.384,3.088-3.089c0-1.706-1.383-3.09-3.088-3.09
	c-0.861,0-1.64,0.354-2.199,0.924"/>
<line fill="none" stroke="#4DA4FC" stroke-width="2" stroke-linecap="round" stroke-linejoin="round" stroke-miterlimit="10" x1="57" y1="16" x2="2" y2="16"/>
<line fill="none" stroke="#4DA4FC" stroke-width="2" stroke-linecap="round" stroke-linejoin="round" stroke-miterlimit="10" x1="2" y1="24" x2="57" y2="24"/>
<line fill="none" stroke="#4DA4FC" stroke-width="2" stroke-linecap="round" stroke-linejoin="round" stroke-miterlimit="10" x1="8" y1="33" x2="24" y2="33"/>
<line fill="none" stroke="#4DA4FC" stroke-width="2" stroke-linecap="round" stroke-linejoin="round" stroke-miterlimit="10" x1="8" y1="38" x2="32" y2="38"/>
<circle fill="none" stroke="#4DA4FC" stroke-width="2.0242" stroke-linecap="round" stroke-linejoin="round" stroke-miterlimit="10" cx="42.46" cy="35.07" r="3.088"/>
<g>
	<path fill="none" stroke="#4DA4FC" stroke-width="2" stroke-linecap="round" stroke-linejoin="round" stroke-miterlimit="10" d="
		M57,42.951C57,45.188,55.188,47,52.952,47H5.048C2.812,47,1,45.188,1,42.951V15.049C1,12.812,2.812,11,5.048,11h47.903
		C55.188,11,57,12.812,57,15.049V42.951z"/>
</g>
</svg>
